<svg xmlns="http://www.w3.org/2000/svg" viewBox="0 0 493.28 125.65"><defs><style>.cls-1{fill:#010101}.cls-5{fill:#231f20}</style></defs><g id="Layer_2" data-name="Layer 2"><g id="Layer_1-2" data-name="Layer 1"><circle class="cls-1" cx="62.56" cy="63.09" r="62.56" transform="rotate(-22.5 62.553 63.085)"/><circle class="cls-1" cx="62.56" cy="63.09" r="58.65" transform="rotate(-67.5 62.568 63.087)"/><circle cx="62.57" cy="54.61" r="52.02" fill="#dde460"/><path class="cls-1" d="M62.56 108a54 54 0 1154-54 54 54 0 01-54 54zm0-104a50.07 50.07 0 1050.07 50A50.12 50.12 0 0062.56 3.91z"/><circle cx="53.85" cy="78.43" r="43.18" fill="#a7dcda"/><path class="cls-1" d="M53.94 123.58a45.65 45.65 0 01-9.55-1A45.14 45.14 0 1198 87.89a45.17 45.17 0 01-44 35.69zm-.1-86.38a41.23 41.23 0 1040.32 49.87A41.24 41.24 0 0053.84 37.2z"/><circle cx="91.57" cy="80.25" r="26.79" fill="#f6df3f"/><path class="cls-1" d="M91.57 109a28.75 28.75 0 1128.75-28.75A28.78 28.78 0 0191.57 109zm0-53.58a24.84 24.84 0 1024.83 24.83 24.86 24.86 0 00-24.83-24.83z"/><path class="cls-5" d="M170.35 67h-9.45l-3.84 18.25h-10.79L156.76 36h20.32c8.27 0 13.92 5.78 13.92 12.43C191 61.66 180.47 67 170.35 67zm1.33-23.78h-5.76l-3.54 16.54h3.69c7.24 0 13.89-1.62 13.89-10.26.04-3.95-4.07-6.31-8.28-6.31zM225.39 72.07a69.77 69.77 0 00-1.77 13.15H213.2c.15-1.84.82-5.32 1.41-8.72-2.66 4.81-7 9.54-14.26 9.54-7.46 0-11.23-5-11.23-11.83 0-16.62 14.85-26.89 29-26.89 4.29 0 9.83.74 12.41 1.7zm-9.23-17.88c-8.5 0-16.25 9-16.25 18.92 0 3.32 1.18 6 5 6 5.17 0 10.12-7.09 12.19-15.95l2-8.57a8.27 8.27 0 00-2.94-.4zM264.92 80.27C261.6 95.2 256.13 102 239.73 102a41 41 0 01-12.86-2.07l2-7.31a22.18 22.18 0 0010.64 2.51c9.23 0 12.78-4.87 14.48-11.82l1.18-4.87c-3.55 4.72-7.24 6.79-13.37 6.79-7.61 0-11.31-4.73-11.31-11 0-16.69 15.22-26.81 29.41-26.81a46.75 46.75 0 0112 1.62zm-7.24-26c-8.5 0-16.4 8.72-16.4 19.06 0 3.32 1.18 5.76 4.8 5.76 6.95 0 10.79-8.86 12.34-15.44l2.14-8.94a9.92 9.92 0 00-2.88-.44zM308.29 45a23.63 23.63 0 00-10.2-2.44c-4.5 0-11.23 2.07-11.23 7.17 0 7.16 19.51 6.06 19.51 19.65 0 10.78-10.2 16.7-22.68 16.7a44.53 44.53 0 01-14.41-2.15l2.59-8A25 25 0 00284 78.65c5.25-.08 11.08-2.44 11.08-7.91 0-7.75-19.35-6.94-19.35-19.43 0-11.74 11.74-16.1 23-16.1a34 34 0 0112.12 2.21zM320 69.56a10.93 10.93 0 00-.52 3.47c0 5 3.84 7 8.35 7a22 22 0 0011.37-3.4l-.36 6.57a31.81 31.81 0 01-14.08 2.8c-8.05 0-15.66-3.48-15.66-12.56 0-14.71 11.16-26.08 24.31-26.08 6 0 12.78 2.14 12.78 8.94 0 11.7-16.92 13.26-26.19 13.26zm12.48-16.18c-5.61 0-9.68 5.84-11.52 10.64 6.65 0 15.95-1.18 15.95-7 .09-2.75-1.91-3.64-4.39-3.64zM380.25 80.27c-3.33 14.93-8.79 21.73-25.2 21.73a41 41 0 01-12.85-2.07l2-7.31a22.23 22.23 0 0010.64 2.51c9.24 0 12.78-4.87 14.48-11.82l1.19-4.87c-3.55 4.72-7.24 6.79-13.38 6.79-7.61 0-11.3-4.73-11.3-11 0-16.69 15.22-26.81 29.4-26.81a46.68 46.68 0 0112 1.62zm-7.24-26c-8.5 0-16.4 8.72-16.4 19.06 0 3.32 1.18 5.76 4.8 5.76 6.94 0 10.78-8.86 12.34-15.44l2.14-8.94a9.92 9.92 0 00-2.89-.44zM421.18 76.87a84.13 84.13 0 00-1.41 8.35h-9.53l1-6.65c-3.14 4.36-7.05 7.43-13.19 7.43-6 0-10.19-3-10.19-9.17a20.45 20.45 0 01.37-4.21l5.24-24.6h10.2L399 70.45a18.27 18.27 0 00-.59 3.84c0 2.81 1.33 4.87 4.88 4.87 5.54 0 8.12-5.09 9.16-9.82L417 48.06h10.19zM454.5 57a8.44 8.44 0 00-3-.52c-6.73 0-10.49 6.51-11.75 12.42l-3.47 16.32H426l6.13-28.81a81.15 81.15 0 001.48-8.2h9.6l-1.4 7.61c2.29-4.58 6.8-8.5 12.12-8.5a10 10 0 012.95.37zM469.42 86c-8.2 0-15.74-4.51-15.74-13.45 0-14.33 9.24-25.19 23.94-25.19 8.2 0 15.66 4.36 15.66 13.37C493.28 75 483.9 86 469.42 86zm6.43-31.77c-7.61 0-11.45 10.78-11.45 17.21 0 4.43 1.7 7.68 6.5 7.68 7.46 0 11.75-10.86 11.75-17.21 0-4.39-2-7.64-6.8-7.64z"/></g></g></svg>